<svg width="440" height="60" viewBox="0 0 440 60" xmlns="http://www.w3.org/2000/svg">
  <defs>
    <marker id="ar-sm" viewBox="0 0 10 10" refX="8" refY="5" markerWidth="4" markerHeight="4" orient="auto-start-reverse">
      <path d="M2 1L8 5L2 9" fill="none" stroke="#e63030" stroke-width="1.8" stroke-linecap="round" stroke-linejoin="round"/>
    </marker>
    <clipPath id="pipe-clip-h">
      <rect x="42" y="12" width="116" height="36" rx="0"/>
    </clipPath>
  </defs>
  <g transform="translate(100,30)">
    <rect x="-58" y="-18" width="116" height="36" rx="18" fill="none" stroke="#e63030" stroke-width="2.5"/>
    <circle cx="-58" cy="0" r="18" fill="none" stroke="#e63030" stroke-width="2.5"/>
    <line x1="-58" y1="-9" x2="-58" y2="9" stroke="#e63030" stroke-width="2.5" stroke-linecap="round"/>
    <g clip-path="url(#pipe-clip-h)" transform="translate(-100,-30)">
      <g transform="translate(72,30)">
        <rect x="-13" y="-9" width="26" height="18" rx="2" fill="#e63030"/>
        <polyline points="-13,-9 0,-1 13,-9" fill="none" stroke="#b82020" stroke-width="0.8"/>
      </g>
      <g transform="translate(120,30)">
        <rect x="-13" y="-9" width="26" height="18" rx="2" fill="#e63030" opacity="0.55"/>
      </g>
      <g transform="translate(168,30)">
        <rect x="-13" y="-9" width="26" height="18" rx="2" fill="#e63030" opacity="0.22"/>
      </g>
    </g>
    <line x1="-88" y1="0" x2="-62" y2="0" stroke="#e63030" stroke-width="2" fill="none" stroke-linecap="round" marker-end="url(#ar-sm)"/>
    <line x1="62" y1="-6" x2="82" y2="-16" stroke="#e63030" stroke-width="1.5" fill="none" stroke-linecap="round" marker-end="url(#ar-sm)"/>
    <line x1="62" y1="6" x2="82" y2="16" stroke="#e63030" stroke-width="1.5" fill="none" stroke-linecap="round" marker-end="url(#ar-sm)" opacity="0.4"/>
  </g>
  <text x="210" y="24" text-anchor="start" font-size="28" font-weight="500" fill="#111" letter-spacing="-0.5px" font-family="ui-sans-serif,system-ui,sans-serif">postino</text>
  <text x="210" y="43" text-anchor="start" font-size="9" fill="#888" letter-spacing="1.5px" font-family="ui-monospace,monospace">message broker for agents</text>
</svg>
